<svg width="61" height="61" viewBox="0 0 61 61" fill="none" xmlns="http://www.w3.org/2000/svg">
<path d="M49.6285 60.9592H11.3307C4.98551 60.9592 0 55.9737 0 49.6285V11.3307C0 4.98551 4.98551 0 11.3307 0H49.6285C55.9736 0 60.9591 4.98551 60.9591 11.3307V49.6285C60.9591 55.9737 55.747 60.9592 49.6285 60.9592Z" fill="url(#paint0_linear_437_285)"/>
<path fill-rule="evenodd" clip-rule="evenodd" d="M23.1079 15.0729C22.7605 15.1944 22.4572 15.4035 22.2765 15.6459C21.9979 16.0199 21.9381 16.3304 21.9381 17.4045V18.3915L20.6101 18.3921C19.3473 18.3926 19.2665 18.3994 18.966 18.5306C18.7923 18.6065 18.5477 18.7808 18.4226 18.9179C18.0419 19.3349 18.0008 19.5353 18.0008 20.9727C18.0008 22.1699 18.0084 22.2527 18.1304 22.3982C18.3095 22.6118 18.6296 22.6118 18.8087 22.3982C18.9304 22.2531 18.9383 22.1693 18.9383 21.018C18.9383 19.2228 18.8896 19.2706 20.7163 19.2706H21.9381V19.6995C21.9381 20.5158 22.2667 21.0806 22.9033 21.3586C23.5043 21.621 24.3096 21.509 24.7719 21.0986C25.1056 20.8025 25.2658 20.412 25.2995 19.8127L25.33 19.2706H27.0714H28.8128V19.6995C28.8128 20.2578 28.9423 20.6512 29.2297 20.9661C30.0178 21.8295 31.5583 21.6136 32.0382 20.5725C32.0935 20.4524 32.1533 20.1119 32.1715 19.8127L32.2047 19.2706H33.9375H35.6704L35.7035 19.8127C35.7217 20.1119 35.7815 20.4524 35.8368 20.5725C36.3167 21.6136 37.8572 21.8295 38.6453 20.9661C38.9328 20.6512 39.0622 20.2578 39.0622 19.6995V19.2706H40.2841C41.2539 19.2706 41.5436 19.289 41.6892 19.3595C42.0881 19.553 42.0621 18.8755 42.0621 29.0742V38.3561L42.2067 38.4836C42.3989 38.6528 42.6895 38.6492 42.8637 38.4754L42.9995 38.3397V29.0207C42.9995 18.668 43.0307 19.414 42.5778 18.9179C42.4526 18.7808 42.2081 18.6065 42.0343 18.5306C41.734 18.3995 41.6529 18.3926 40.3952 18.3921L39.072 18.3915L39.0515 17.2926C39.0286 16.0674 38.9716 15.8541 38.5651 15.4729C38.21 15.1398 37.9035 15.0243 37.3748 15.0243C36.8462 15.0243 36.5397 15.1398 36.1845 15.4729C35.778 15.8541 35.721 16.0674 35.6982 17.2926L35.6777 18.3915H33.9375H32.1973L32.1768 17.2926C32.154 16.0674 32.097 15.8541 31.6905 15.4729C31.3353 15.1398 31.0288 15.0243 30.5002 15.0243C29.9715 15.0243 29.665 15.1398 29.3099 15.4729C28.9034 15.8541 28.8464 16.0674 28.8235 17.2926L28.803 18.3915H27.0629H25.3227L25.3022 17.2926C25.2793 16.0674 25.2223 15.8541 24.8159 15.4729C24.3797 15.0639 23.6335 14.8891 23.1079 15.0729ZM23.9361 15.9464C24.021 15.9867 24.1546 16.1089 24.233 16.2179C24.3737 16.4137 24.3755 16.4391 24.3755 18.2262C24.3755 20.1851 24.3549 20.3267 24.0425 20.5187C23.8138 20.6592 23.3709 20.6488 23.1667 20.4982C22.891 20.2948 22.8664 20.0848 22.8873 18.1178L22.9068 16.2909L23.0631 16.1334C23.3216 15.8727 23.638 15.8049 23.9361 15.9464ZM30.8108 15.9464C30.8957 15.9867 31.0293 16.1089 31.1077 16.2179C31.2483 16.4137 31.2501 16.4391 31.2501 18.2262C31.2501 20.1851 31.2296 20.3267 30.9172 20.5187C30.711 20.6454 30.2598 20.6477 30.07 20.523C29.7725 20.3276 29.7502 20.1678 29.7502 18.2262C29.7502 16.4391 29.752 16.4137 29.8927 16.2179C30.1265 15.8926 30.4782 15.7886 30.8108 15.9464ZM37.6854 15.9464C37.7703 15.9867 37.9039 16.1089 37.9823 16.2179C38.123 16.4137 38.1248 16.4391 38.1248 18.2262C38.1248 20.1678 38.1025 20.3276 37.805 20.523C37.6152 20.6477 37.164 20.6454 36.9579 20.5187C36.6454 20.3267 36.6249 20.1851 36.6249 18.2262C36.6249 16.4391 36.6267 16.4137 36.7674 16.2179C37.0012 15.8926 37.3529 15.7886 37.6854 15.9464ZM18.2705 23.7825C18.1954 23.8116 18.104 23.8879 18.0674 23.952C18.0211 24.0333 18.0008 27.0495 18.0008 33.8788C18.0008 44.9536 17.9576 44.0265 18.4978 44.5331C19.0391 45.0407 17.9696 44.9992 30.5002 44.9992C43.0307 44.9992 41.9613 45.0407 42.5026 44.5331C42.9781 44.0871 42.9995 43.974 42.9995 41.908C42.9995 40.8584 42.9744 40.083 42.9384 40.0199C42.7938 39.7666 42.2095 39.7843 42.1027 40.0452C42.0803 40.0997 42.0621 40.9215 42.0621 41.8714C42.0621 43.3004 42.0457 43.6281 41.9673 43.7704C41.7604 44.1455 42.5948 44.1201 30.5002 44.1201C20.7851 44.1201 19.4731 44.1096 19.3112 44.0312C18.9117 43.8374 18.9383 44.5656 18.9383 33.8146C18.9383 24.582 18.9321 24.024 18.8289 23.9096C18.698 23.7644 18.4582 23.7099 18.2705 23.7825ZM25.8425 23.8395C25.7729 23.8657 25.1431 24.5368 24.4429 25.331C23.7427 26.125 23.1549 26.7607 23.1366 26.7436C23.1184 26.7265 22.9608 26.5084 22.7864 26.2589C22.4952 25.8422 22.4505 25.8039 22.2385 25.7873C21.9587 25.7655 21.7506 25.9299 21.7506 26.1727C21.7506 26.2728 21.9455 26.6341 22.2587 27.1148C22.8107 27.9621 22.9511 28.077 23.2594 27.9338C23.4004 27.8682 24.3492 26.8333 26.0435 24.8969C26.5096 24.3643 26.5652 24.209 26.3643 24.0015C26.1953 23.8267 26.0206 23.7725 25.8425 23.8395ZM27.9999 25.4791C26.6878 25.8534 26.4995 27.4661 27.7021 28.0281L28.0249 28.1789H33.2394C37.1662 28.1789 38.5176 28.1612 38.7113 28.1073C39.0495 28.0131 39.5103 27.5809 39.6108 27.2637C39.789 26.7012 39.595 26.0567 39.1524 25.7402C38.7051 25.4202 38.7758 25.424 33.2557 25.4294C30.4512 25.4322 28.0861 25.4546 27.9999 25.4791ZM38.457 26.3716C38.7871 26.5366 38.8543 26.9141 38.5963 27.1559L38.443 27.2998H33.2897H28.1364L27.9691 27.1133C27.8393 26.9686 27.8101 26.8878 27.8389 26.7526C27.8829 26.5465 27.9799 26.4256 28.1544 26.3593C28.3654 26.279 38.2956 26.2911 38.457 26.3716ZM25.8425 29.6416C25.7729 29.6678 25.1431 30.3389 24.4429 31.1331C23.7427 31.9271 23.1549 32.5628 23.1366 32.5457C23.1184 32.5286 22.9608 32.3105 22.7864 32.0611C22.4952 31.6444 22.4505 31.606 22.2385 31.5894C21.9587 31.5676 21.7506 31.732 21.7506 31.9748C21.7506 32.0749 21.9455 32.4362 22.2587 32.9169C22.8111 33.7648 22.9505 33.8788 23.2609 33.7359C23.3969 33.6733 24.5477 32.4142 26.1985 30.5218C26.5094 30.1654 26.5489 29.9943 26.3643 29.8036C26.1953 29.6289 26.0206 29.5746 25.8425 29.6416ZM28.1566 31.2656C27.6161 31.383 27.2665 31.6131 27.0667 31.9828C26.6924 32.6755 26.9911 33.5368 27.7166 33.8565C27.9976 33.9804 28.0248 33.981 33.2962 33.9797C38.3233 33.9785 38.6063 33.9729 38.8435 33.8697C39.3656 33.6425 39.6883 33.1639 39.6858 32.6203C39.6835 32.0897 39.3946 31.6565 38.867 31.3926L38.5935 31.2558L33.4375 31.2471C30.6017 31.2424 28.2253 31.2506 28.1566 31.2656ZM38.599 32.2994C38.796 32.5142 38.795 32.7718 38.5963 32.958L38.443 33.1019H33.2841C28.2308 33.1019 28.1228 33.0996 28.0019 32.9862C27.8381 32.8326 27.7912 32.6353 27.8714 32.4377C28.008 32.1007 27.8824 32.1079 33.3961 32.122L38.4482 32.1349L38.599 32.2994ZM25.8248 35.4862C25.7798 35.5031 25.178 36.1537 24.4874 36.9321C23.7968 37.7104 23.2122 38.3683 23.1882 38.394C23.1642 38.4197 23.0079 38.2302 22.8409 37.9729C22.4536 37.3765 22.2355 37.2655 21.9153 37.5017C21.644 37.7019 21.6929 37.896 22.2165 38.6964C22.7673 39.5383 22.8528 39.6221 23.1353 39.5968C23.3249 39.5798 23.485 39.4207 24.8636 37.8784C25.6992 36.9436 26.41 36.116 26.4432 36.0392C26.5901 35.6994 26.1959 35.3469 25.8248 35.4862ZM27.7191 37.2062C27.1806 37.4524 26.8209 38.0839 26.9082 38.6297C26.9984 39.1941 27.4757 39.6628 28.0799 39.7804C28.3106 39.8253 29.9687 39.8401 33.5028 39.8287L38.5935 39.8124L38.867 39.6756C39.3946 39.4117 39.6835 38.9785 39.6858 38.4479C39.6883 37.9043 39.3656 37.4257 38.8435 37.1986C38.6061 37.0952 38.3259 37.0898 33.2813 37.0908C28.1422 37.0918 27.9609 37.0956 27.7191 37.2062ZM38.5963 38.1102C38.795 38.2964 38.796 38.554 38.599 38.7689L38.4482 38.9333L33.4123 38.949C29.0979 38.9625 28.345 38.9523 28.1567 38.8786C27.7961 38.7373 27.7201 38.3463 28.0019 38.0821C28.1228 37.9687 28.2308 37.9663 33.2841 37.9663H38.443L38.5963 38.1102Z" fill="white"/>
<defs>
<linearGradient id="paint0_linear_437_285" x1="30.6898" y1="-10.1064" x2="34.4913" y2="68.4698" gradientUnits="userSpaceOnUse">
<stop stop-color="#9C2CF3"/>
<stop offset="1" stop-color="#3A49F9"/>
</linearGradient>
</defs>
</svg>
