<svg width="36" height="40" viewBox="0 0 36 40" fill="none" xmlns="http://www.w3.org/2000/svg">
<path d="M31.4167 39.1667H4.58333C2.46624 39.1667 0.75 37.4504 0.75 35.3333V8.50001C0.75 6.38292 2.46624 4.66668 4.58333 4.66668H8.41667V2.75001C8.41667 1.69146 9.27479 0.833344 10.3333 0.833344C11.3919 0.833344 12.25 1.69146 12.25 2.75001V4.66668H23.75V2.75001C23.75 1.69146 24.6081 0.833344 25.6667 0.833344C26.7252 0.833344 27.5833 1.69146 27.5833 2.75001V4.66668H31.4167C33.5338 4.66668 35.25 6.38292 35.25 8.50001V35.3333C35.25 37.4504 33.5338 39.1667 31.4167 39.1667ZM4.58333 16.1667V34.3333C4.58333 34.8856 5.03105 35.3333 5.58333 35.3333H30.4167C30.969 35.3333 31.4167 34.8856 31.4167 34.3333V16.1667H4.58333ZM5.58333 8.50001C5.03105 8.50001 4.58333 8.94773 4.58333 9.50001V12.3333H31.4167V9.50001C31.4167 8.94772 30.969 8.50001 30.4167 8.50001H5.58333ZM27.5833 29.5833C27.5833 30.6419 26.7252 31.5 25.6667 31.5C24.6081 31.5 23.75 30.6419 23.75 29.5833C23.75 28.5248 24.6081 27.6667 25.6667 27.6667C26.7252 27.6667 27.5833 28.5248 27.5833 29.5833ZM19.9167 29.5833C19.9167 30.6419 19.0585 31.5 18 31.5C16.9415 31.5 16.0833 30.6419 16.0833 29.5833C16.0833 28.5248 16.9415 27.6667 18 27.6667C19.0585 27.6667 19.9167 28.5248 19.9167 29.5833ZM12.25 29.5833C12.25 30.6419 11.3919 31.5 10.3333 31.5C9.27479 31.5 8.41667 30.6419 8.41667 29.5833C8.41667 28.5248 9.27479 27.6667 10.3333 27.6667C11.3919 27.6667 12.25 28.5248 12.25 29.5833ZM27.5833 21.9167C27.5833 22.9752 26.7252 23.8333 25.6667 23.8333C24.6081 23.8333 23.75 22.9752 23.75 21.9167C23.75 20.8581 24.6081 20 25.6667 20C26.7252 20 27.5833 20.8581 27.5833 21.9167ZM19.9167 21.9167C19.9167 22.9752 19.0585 23.8333 18 23.8333C16.9415 23.8333 16.0833 22.9752 16.0833 21.9167C16.0833 20.8581 16.9415 20 18 20C19.0585 20 19.9167 20.8581 19.9167 21.9167ZM12.25 21.9167C12.25 22.9752 11.3919 23.8333 10.3333 23.8333C9.27479 23.8333 8.41667 22.9752 8.41667 21.9167C8.41667 20.8581 9.27479 20 10.3333 20C11.3919 20 12.25 20.8581 12.25 21.9167Z" fill="#D8DEF3"/>
</svg>
