<svg width="34" height="42" viewBox="0 0 34 42" fill="none" xmlns="http://www.w3.org/2000/svg">
<path d="M17 41.8333C14.6988 41.8333 12.8333 39.9678 12.8333 37.6666H21.1666C21.1666 39.9678 19.3012 41.8333 17 41.8333ZM33.6666 35.5833H0.333313V31.4166L4.49998 29.3333V17.875C4.49998 10.6625 7.4604 5.98538 12.8333 4.70829V4.33329C12.8333 2.03211 14.6988 0.166626 17 0.166626C19.3012 0.166626 21.1666 2.03211 21.1666 4.33329V4.70829C26.5396 5.98329 29.5 10.6583 29.5 17.875V29.3333L33.6666 31.4166V35.5833ZM17 7.97913C14.4576 7.81496 12.0058 8.95262 10.4896 11C9.19278 13.0511 8.55652 15.4508 8.66665 17.875V30.4166C8.66665 30.9689 9.11436 31.4166 9.66665 31.4166H24.3333C24.8856 31.4166 25.3333 30.9689 25.3333 30.4166V17.875C25.4433 15.4508 24.8071 13.0512 23.5104 11C21.9942 8.95262 19.5423 7.81496 17 7.97913Z" fill="#D8DEF3"/>
</svg>
